<svg width="24" height="24" viewBox="0 0 24 24" fill="none" xmlns="http://www.w3.org/2000/svg">
<path d="M12 12.0001C10.9 12.0001 10 11.1001 10 10.0001C10 8.90012 10.9 8.00012 12 8.00012C13.1 8.00012 14 8.90012 14 10.0001C14 11.1001 13.1 12.0001 12 12.0001ZM18 10.2001C18 6.57012 15.35 4.00012 12 4.00012C8.65 4.00012 6 6.57012 6 10.2001C6 12.5401 7.95 15.6401 12 19.3401C16.05 15.6401 18 12.5401 18 10.2001ZM12 2.00012C16.2 2.00012 20 5.22012 20 10.2001C20 13.5201 17.33 17.4501 12 22.0001C6.67 17.4501 4 13.5201 4 10.2001C4 5.22012 7.8 2.00012 12 2.00012Z" fill="white"/>
</svg>
